<?xml version="1.0" encoding="utf-8"?>
<!-- Generator: Adobe Illustrator 19.0.0, SVG Export Plug-In . SVG Version: 6.00 Build 0)  -->
<svg version="1.1" id="Layer_1" xmlns="http://www.w3.org/2000/svg" xmlns:xlink="http://www.w3.org/1999/xlink" x="0px" y="0px"
	 viewBox="0 0 23 17.6" style="enable-background:new 0 0 23 17.6;" xml:space="preserve">
<style type="text/css">
	.st0{fill:#FFFFFF;}
	.st1{clip-path:url(#SVGID_2_);fill:#FFFFFF;}
</style>
<path class="st0" d="M5.8,4.4h15l-2.2,6.2H7.1L5.8,4.4z M0,0v1.5h3.7l2.1,10.6h13.9L23,2.9H5.5L5,0H0z"/>
<g>
	<defs>
		<rect id="SVGID_1_" y="0" width="23" height="17.6"/>
	</defs>
	<clipPath id="SVGID_2_">
		<use xlink:href="#SVGID_1_"  style="overflow:visible;"/>
	</clipPath>
	<path class="st1" d="M9.8,15c0,0.6-0.5,1.1-1.1,1.1c-0.6,0-1.1-0.5-1.1-1.1c0-0.6,0.5-1.1,1.1-1.1C9.4,13.9,9.8,14.4,9.8,15
		 M8.8,12.4c-1.4,0-2.6,1.2-2.6,2.6s1.2,2.6,2.6,2.6s2.6-1.2,2.6-2.6S10.2,12.4,8.8,12.4"/>
	<path class="st1" d="M18.7,15c0,0.6-0.5,1.1-1.1,1.1c-0.6,0-1.1-0.5-1.1-1.1c0-0.6,0.5-1.1,1.1-1.1C18.2,13.9,18.7,14.4,18.7,15
		 M17.6,12.4c-1.4,0-2.6,1.2-2.6,2.6s1.2,2.6,2.6,2.6c1.4,0,2.6-1.2,2.6-2.6S19.1,12.4,17.6,12.4"/>
</g>
</svg>
