<?xml version="1.0" encoding="utf-8"?>
<!-- Generator: Adobe Illustrator 19.0.0, SVG Export Plug-In . SVG Version: 6.00 Build 0)  -->
<svg version="1.1" id="Layer_1" xmlns="http://www.w3.org/2000/svg" xmlns:xlink="http://www.w3.org/1999/xlink" x="0px" y="0px"
	 viewBox="0 0 263 43" style="enable-background:new 0 0 263 43;" xml:space="preserve">
<style type="text/css">
	.st0{fill-rule:evenodd;clip-rule:evenodd;fill:none;stroke:#FFFFFF;stroke-width:2.2523;stroke-miterlimit:2.6131;}
	.st1{fill-rule:evenodd;clip-rule:evenodd;fill:#FFFFFF;}
	.st2{fill:#FFFFFF;}
</style>
<g id="XMLID_112_">
	<path id="XMLID_60_" class="st0" d="M73.8,20.7c0,1.3-0.6,2.4-1.3,3.3c-2,2.3-7.3,7.7-14.6,11.4c-6.1,3.1-13.6,4.9-20,4.9h0
		c-6.3,0-13.9-1.8-20-4.9c-7.2-3.7-12.6-9-14.6-11.4C2.6,23.1,2,22,2,20.7c0-1.3,0.6-2.4,1.3-3.3c2-2.3,7.3-7.7,14.6-11.4
		C24,3,31.5,1.2,37.9,1.2h0c6.4,0,13.9,1.8,20,4.9c7.2,3.7,12.6,9,14.6,11.4C73.2,18.4,73.8,19.5,73.8,20.7z"/>
	<g id="XMLID_119_">
		<g id="XMLID_145_">
			<path id="XMLID_59_" class="st1" d="M33.2,5.7c0,0.3,2.4,0,3.1,2.2c0.6,0,1.7,0,2.3,0c0.5-1.5,2.3-1.9,2.2-2
				c-0.8-1.3-2.6-0.3-3.1-0.3c-0.8,0-0.8-0.9-2.5-0.9C33.7,4.7,33.2,5.4,33.2,5.7L33.2,5.7z"/>
			<path id="XMLID_58_" class="st1" d="M36.3,18.1c-0.1,0.3-0.3,0.2-0.7,0.4c0,0.6,0,0.1,0,0.7c0.6,0.3,0.5,0.6,0.8,1
				c0.2-0.1,1.7,0,2.1-0.1c-0.2-1.9,0.3-3.6,0.9-4.5c-0.1,0-0.2-0.5-0.4-0.4c-0.3,0.2-0.5,0.1-0.5,0.2c-0.1-0.4-0.2-1.4-0.2-1.9
				c-0.5-0.3-1.5-0.7-2.1-0.8C36,14.3,36.5,17.4,36.3,18.1L36.3,18.1z"/>
			<path id="XMLID_57_" class="st1" d="M46.1,19.6c0-1.8-1.6-3.6-5.6-3.8c-0.4,0.4-1,1.2-0.9,1.6c-0.1,0.6,3.5,0.1,3.5,2.2
				c0,1.6-2.7,1.4-5.2,1.4c-6.9,0.2-7.5,2.1-7.7,4.1c-0.2,1.6,1.8,3.5,4.7,3.5c0-0.2,0.3-1.3,0.2-1.8c-0.4-0.3-2.4-0.6-2.2-1.7
				c0.2-1.5,2-2,5.4-1.9C43.3,23.5,46.1,21.5,46.1,19.6L46.1,19.6z"/>
			<path id="XMLID_56_" class="st1" d="M36.2,24.7c-0.2,5.3,0.1,4.5-0.8,5.2c-0.1,0,0,0.2-0.1,0.5c0,0.3,0.2-0.3,0.9,1.1
				c0.3,0.1,1.4,0,1.8-0.2c0.1-0.1,0.2-4.1,0.9-4.5c0,0-0.1-0.2,0-0.4c0.1-0.1-0.5-0.2-0.5-0.5l-0.2-1.4
				C38.2,24.5,36.8,24.4,36.2,24.7L36.2,24.7z"/>
			<path id="XMLID_55_" class="st1" d="M42.2,30.5c-0.1,1.6-3.9,2-5.6,2c-2.4,0-4.6,0.5-4.6,2c0,0.6,0.3,0.2,0.4,0.1
				c0.4-1.3,2.1-0.8,6.3-0.6c2,0,6.2-0.6,6.2-3.6c0-2.8-4.3-3.2-4.9-3.2c-0.6,0.4-0.7,1-0.7,1.9C41.5,29.1,42.2,29.6,42.2,30.5
				L42.2,30.5z"/>
			<path id="XMLID_54_" class="st1" d="M36.2,35c-0.4,1.2-1.2,1.5-1,1.7c0.4,0.6,2.6-0.7,2.5-1.7C37,34.9,36.1,34.7,36.2,35L36.2,35
				z"/>
			<path id="XMLID_147_" class="st1" d="M29.5,13.4c0.1-3.4,5-4.5,8.4-4.5c2.5,0,2.9,0.6,5.1,1.2c1.1,0.3,1.6,0,1.7,0.1
				c-0.5,1.1-1.8,0.7-2.2,1.5c0.1,0.4,0.6,0.3,0.7,0.5c-0.1,0.3-1.1,0.5-1.7,0.5c-3.2-0.1-4.7-1.5-6-1.5c-1.5-0.1-3.2,1-3.1,1.9
				c0.2,1.9,3,1.7,3.1,2c0.1,0.4,0.1,1.1,0.1,1.9C31.8,16.7,29.5,15.6,29.5,13.4L29.5,13.4z M37.6,9.7c0,0-0.1,0.3,0.7,0.5
				c0.3,0,0.7-0.1,0.7-0.4C39,9.3,37.4,9.1,37.6,9.7L37.6,9.7z"/>
			<path id="XMLID_51_" class="st1" d="M44.3,12c1.2,0,2.1,0.6,2.3,0.2c-0.2-0.2-0.3-0.4-0.3-0.5c0-0.6,0.8,0,1-0.3
				c0-0.1,0-0.4-0.7-0.5C45.8,11,45.2,11.5,44.3,12L44.3,12z"/>
		</g>
		<g id="XMLID_133_">
			<path id="XMLID_143_" class="st2" d="M22.5,8.5h1.7l1.1,2.8l1.2-2.8H28v3.7h-1v-3h0l-1.2,3h-1.1l-1.2-3h0v3h-0.9V8.5z"/>
			<path id="XMLID_141_" class="st2" d="M23.7,13.9h3.2v0.8h-2.1v0.7h2v0.8h-2v0.7h2.2v0.8h-3.2V13.9z"/>
			<path id="XMLID_138_" class="st2" d="M23.3,19.3h2.1c0.5,0,1,0.1,1.3,0.3c0.5,0.3,0.8,0.8,0.8,1.5c0,0.7-0.2,1.1-0.6,1.4
				C26.5,22.9,26,23,25.3,23h-2V19.3z M24.4,22.3h0.5c0.9,0,1.5-0.1,1.5-1.2c0-0.9-0.5-1.1-1.3-1.1h-0.7V22.3z"/>
			<path id="XMLID_136_" class="st2" d="M24.7,24.7h1.1v3.7h-1.1V24.7z"/>
			<path id="XMLID_134_" class="st2" d="M26.2,31.4c-0.1-0.4-0.4-0.6-0.8-0.6c-0.7,0-1,0.5-1,1.2c0,0.7,0.3,1.2,1,1.2
				c0.4,0,0.8-0.1,0.8-0.6h1.1c0,1.1-1,1.4-2.1,1.4c-1.1,0-2-0.6-2-2c0-1.4,0.9-2,2.2-2c0.9,0,1.9,0.3,1.9,1.3H26.2z"/>
		</g>
		<g id="XMLID_120_">
			<path id="XMLID_130_" class="st2" d="M50.1,8.5h1.3l1.9,3.7h-1.2l-0.4-0.7h-2.2l-0.4,0.7h-1.1L50.1,8.5z M50.7,9.2l-0.8,1.6h1.5
				L50.7,9.2z"/>
			<path id="XMLID_128_" class="st2" d="M49.3,13.9h1.1v3h2.1v0.8h-3.2V13.9z"/>
			<path id="XMLID_126_" class="st2" d="M49.1,19.3h3.2v0.8h-2.1v0.7h2v0.8h-2v0.7h2.2V23h-3.2V19.3z"/>
			<path id="XMLID_123_" class="st2" d="M48.9,24.7h2.3c0.9,0,1.4,0.3,1.4,1c0,0.5-0.4,0.8-0.9,0.9v0c0.3,0,0.6,0.1,0.7,0.3
				c0.2,0.3,0.2,1.1,0.4,1.5h-1.1c-0.1-0.4-0.1-0.9-0.2-1.2c-0.1-0.2-0.2-0.3-0.7-0.3H50v1.4h-1.1V24.7z M50,26.3h0.9
				c0.5,0,0.7-0.2,0.7-0.4c0-0.4-0.3-0.4-0.8-0.4H50V26.3z"/>
			<path id="XMLID_121_" class="st2" d="M50.2,30.9h-1.4v-0.8h3.9v0.8h-1.4v3h-1.1V30.9z"/>
		</g>
	</g>
	<g id="XMLID_113_">
		<path id="XMLID_114_" class="st2" d="M67.2,34.4c0-0.7,0.2-1.2,0.7-1.7c0.5-0.5,1-0.7,1.7-0.7c0.7,0,1.2,0.2,1.7,0.7
			c0.5,0.5,0.7,1,0.7,1.7c0,0.7-0.2,1.2-0.7,1.7c-0.5,0.5-1,0.7-1.7,0.7c-0.7,0-1.2-0.2-1.7-0.7C67.5,35.7,67.2,35.1,67.2,34.4z
			 M71.6,34.4c0-0.5-0.2-1-0.6-1.4c-0.4-0.4-0.9-0.6-1.4-0.6c-0.5,0-1,0.2-1.4,0.6c-0.4,0.4-0.6,0.9-0.6,1.4c0,0.5,0.2,1,0.6,1.4
			c0.4,0.4,0.9,0.6,1.4,0.6c0.5,0,1-0.2,1.4-0.6C71.4,35.5,71.6,35,71.6,34.4z M70.4,35.9l-0.7-1.3h-0.4v1.3h-0.4V33h0.7
			c0.7,0,1.1,0.3,1.1,0.8c0,0.4-0.2,0.6-0.6,0.8l0.8,1.3H70.4z M69.2,33.3v1c0,0,0.1,0,0.3,0c0.3,0,0.5,0,0.5-0.1
			c0.1-0.1,0.1-0.2,0.1-0.4c0-0.3-0.2-0.5-0.6-0.5h-0.2L69.2,33.3z"/>
	</g>
</g>
<g id="XMLID_106_">
	<path id="XMLID_107_" class="st2" d="M254,5c0-0.5,0.2-0.9,0.5-1.3c0.4-0.4,0.8-0.5,1.3-0.5c0.5,0,0.9,0.2,1.3,0.5
		c0.4,0.4,0.5,0.8,0.5,1.3c0,0.5-0.2,0.9-0.5,1.3c-0.4,0.4-0.8,0.5-1.3,0.5c-0.5,0-0.9-0.2-1.3-0.5C254.2,5.9,254,5.5,254,5z
		 M257.3,5c0-0.4-0.1-0.8-0.4-1.1c-0.3-0.3-0.7-0.4-1.1-0.4c-0.4,0-0.8,0.1-1.1,0.4c-0.3,0.3-0.4,0.7-0.4,1.1c0,0.4,0.1,0.8,0.4,1.1
		c0.3,0.3,0.7,0.4,1.1,0.4c0.4,0,0.8-0.1,1.1-0.4C257.2,5.8,257.3,5.4,257.3,5z M256.4,6.1l-0.6-1h-0.3v1h-0.3V3.9h0.6
		c0.5,0,0.8,0.2,0.8,0.6c0,0.3-0.1,0.5-0.4,0.6l0.6,1H256.4z M255.5,4.1v0.7c0,0,0.1,0,0.2,0c0.2,0,0.3,0,0.4-0.1
		c0.1-0.1,0.1-0.2,0.1-0.3c0-0.2-0.2-0.4-0.5-0.4h-0.1L255.5,4.1z"/>
</g>
<path id="XMLID_29_" class="st1" d="M105.6,3.3l-9.6,27.2H95L85.4,3.7v20c0,1.8,0.3,3.2,0.8,3.9c0.6,0.8,1.7,1.3,3,1.3v1.6h-9.5
	v-1.6c1.2,0,2.3-0.5,2.8-1.1c0.6-0.8,0.9-2.2,0.9-4V6.8c0-1.8-0.3-3.1-0.6-3.4c-0.3-0.3-1.2-0.6-2.3-0.6h-0.8V1.5H88l8.2,23.2
	l8.2-23.2h8.7v1.3h-0.8c-1.2,0-2,0.3-2.4,0.6c-0.3,0.3-0.6,1.6-0.6,3.2v18.9c0,1.4,0.2,2.6,0.5,2.9c0.3,0.3,1.3,0.6,2.5,0.6h0.8v1.5
	h-11.4V29h0.6c1.2,0,2.2-0.2,2.5-0.5c0.3-0.3,0.6-1.5,0.6-3.1V3.3L105.6,3.3z"/>
<path id="XMLID_102_" class="st1" d="M150,29.2v1.3h-2.2c-0.3,0-0.8,0-1.1,0c-0.5,0-1.3,0-2.1,0l-0.2-2c-0.8,0.8-1.8,1.6-2.6,2
	c-0.9,0.3-2,0.6-2.9,0.6c-2.2,0-4.1-1-5.6-2.9c-1.5-2-2.3-4.3-2.3-7.3c0-2.9,0.8-5.4,2.1-7.4c1.5-1.9,3.4-3,5.6-3c1,0,2,0.3,2.8,0.6
	c1,0.3,2,1.1,2.9,1.7V7.5c0-2.4-0.3-2.7-0.6-3.1c0,0-1.5-0.7-2.8-0.7l-0.1-0.9l6.5-2.6v25.8c0,0.4,0.2,2.3,0.5,2.6
	C148.1,28.8,149,29.2,150,29.2L150,29.2z M144.1,26.9V14.7c-0.6-0.6-1.4-1.3-2-1.6c-0.8-0.3-1.6-0.6-2.2-0.6c-1.6,0-3,0.8-3.8,2.1
	c-0.9,1.4-1.4,3.6-1.4,6.1c0,2.7,0.5,5,1.2,6.3c0.8,1.4,2,2.3,3.6,2.3c0.6,0,1.6-0.2,2.2-0.5c0.6-0.3,1.6-1,2.3-1.6V26.9L144.1,26.9
	z"/>
<path id="XMLID_26_" class="st1" d="M246.4,4.7h2.9v6.5h5.8l-0.1,1.9h-5.7v12.4c0,0.9,0.2,2.2,0.5,2.7c0.3,0.6,1.2,1,2,1
	c0.4,0,1-0.2,1.5-0.3c0.5-0.3,1.1-0.9,1.8-1.6l1.1,0.9c-0.6,1-1.7,1.8-2.4,2.1c-0.8,0.4-2,0.8-3,0.8c-1.6,0-2.8-0.6-3.4-1.3
	c-0.6-0.8-1-2.3-1-4.2C246.4,24.5,246.4,4.7,246.4,4.7L246.4,4.7z"/>
<path id="XMLID_25_" class="st1" d="M230.1,13.7v-1l5.8-1.9v4.3c1.1-1.6,2.2-2.9,3.2-3.6c0.9-0.6,2-1.1,3-1.1c0.8,0,1.6,0.2,1.9,0.5
	c0.3,0.3,0.6,1.1,0.6,1.8c0,0.5-0.2,1-0.5,1.1c-0.3,0.3-0.8,0.5-1.4,0.5c-0.3,0-0.8-0.2-1.4-0.3c-0.6-0.2-1.1-0.3-1.3-0.3
	c-0.6,0-1.4,0.3-2,0.8c-0.6,0.5-1.3,1.4-1.9,2.6v8.7c0,1.6,0.3,2.6,0.6,2.9c0.3,0.3,1.4,0.5,3,0.5h0.5v1.3h-10.1v-1.3
	c1.1,0,2-0.2,2.3-0.5c0.5-0.3,0.8-1.4,0.8-2.9v-8.7c0-1.3-0.3-2.2-0.6-2.6C232.3,14.2,231.3,13.7,230.1,13.7L230.1,13.7z"/>
<path id="XMLID_97_" class="st1" d="M229.1,25.6l0.8,1.1c-1,1.4-2.4,2.6-3.7,3.2c-1.2,0.6-2.8,1.1-4.4,1.1c-2.5,0-4.9-1-6.5-2.8
	c-1.6-1.9-2.5-4.3-2.5-7.2c0-1.1,0.3-2.4,0.6-3.7c0.3-1.3,1.1-2.4,1.7-3.4c0.9-1.1,1.9-2.1,2.8-2.6c0.9-0.6,2.2-0.9,3.5-0.9
	c2.2,0,4.3,0.8,5.7,2.4c1.4,1.6,2.3,4,2.3,6.6l-13,0.2V20c0,0.2,0,0.5,0,0.8c0,2.6,0.6,4.7,1.6,6.1c1.1,1.4,2.8,2.3,4.8,2.3
	c0.9,0,1.9-0.3,2.8-0.8C226.7,27.7,228,26.8,229.1,25.6L229.1,25.6z M226.1,18.2c0-1.9-0.6-3.7-1.2-4.7c-0.8-1.1-2.1-1.7-3.3-1.7
	c-1.2,0-2.4,0.6-3.2,1.6c-0.8,1.1-1.4,2.9-1.7,5L226.1,18.2L226.1,18.2z"/>
<path id="XMLID_22_" class="st1" d="M203.1,30.4v-1.3c1,0,1.7-0.2,2-0.5c0.4-0.3,0.7-1.5,0.7-3v-18c0-1.3-0.1-3-0.4-3.2
	c-0.3-0.3-1.4-0.9-2.4-0.9l0-1.1l5.9-1.8v25.2c0,1.5,0.2,2.5,0.5,2.8c0.3,0.3,1.2,0.7,2.2,0.7v1.2H203.1L203.1,30.4z"/>
<path id="XMLID_93_" class="st1" d="M177.1,30.5v-1.3c0.8,0,1.6-0.3,2.1-0.9c0.5-0.5,1.1-1.6,1.4-3l7.8-24.2l3.3-1.2l8.6,26.1
	c0.2,0.7,0.5,1.2,0.7,1.5c0.2,0.3,0.5,0.9,0.8,1c0.2,0.2,0.5,0.3,0.8,0.3c0.3,0,0.8,0.2,1.4,0.2v1.3h-10.8v-1.3h0.2
	c1.1,0,2.1-0.2,2.4-0.3c0.4-0.3,0.7-0.8,0.7-1.5c0,0,0-0.3,0-0.5c0-0.3-0.3-0.7-0.3-1l-1.8-5.9h-10.6l-1.3,5c0,0.2-0.2,0.5-0.2,0.7
	c0,0.3-0.2,0.7-0.2,1c0,0.9,0.4,1.7,0.7,2c0.5,0.3,1.3,0.7,2.1,0.7h0.5v1.3H177.1L177.1,30.5z M184.8,18.2h9.1l-4.7-13.9L184.8,18.2
	L184.8,18.2z"/>
<path id="XMLID_19_" class="st1" d="M175.7,25.8l1.1,0.8c-1.1,1.6-2.4,2.9-3.6,3.6c-1.3,0.8-2.7,1.3-4.1,1.3c-1.3,0-2.4-0.2-3.2-0.5
	c-0.8-0.3-1.7-0.9-2.3-1.7c-1-1-1.7-2.1-2.1-3.2c-0.5-1.3-0.8-2.7-0.8-4c0-1.3,0.2-2.6,0.5-3.7c0.3-1.3,1.1-2.6,1.9-3.6
	c0.9-1.3,2-2.2,3-2.9c1.1-0.6,2.5-1,3.8-1c1.6,0,3.1,0.5,4.4,1.3c1.2,0.8,1.9,1.8,1.9,2.8c0,0.5-0.2,0.9-0.5,1.3
	c-0.3,0.3-0.9,0.5-1.4,0.5c-0.5,0-0.9-0.2-1.3-0.3c-0.3-0.2-0.6-0.8-0.9-1.4c-0.5-1-1.1-1.8-1.4-2.1c-0.5-0.3-1.3-0.6-1.9-0.6
	c-1.3,0-2.5,0.8-3.3,2.3c-0.8,1.6-1.3,3.7-1.3,6.1c0,2.9,0.5,5.1,1.4,6.6c0.9,1.6,2.5,2.4,4.3,2.4c0.9,0,2-0.3,3-0.8
	C173.8,28,174.8,27.1,175.7,25.8L175.7,25.8z"/>
<path id="XMLID_18_" class="st1" d="M156.9,10.5v15.3c0,1.6,0.2,2.6,0.5,2.9c0.3,0.3,1.1,0.5,2,0.5v1.3h-7.9v-1.3
	c0.9,0,1.6-0.2,1.9-0.5c0.3-0.3,0.6-1.4,0.6-2.9v-8.4c0-1.3-0.4-2.8-0.7-3c-0.3-0.3-1.3-0.8-2.2-0.8l0-0.9L156.9,10.5L156.9,10.5z"
	/>
<path id="XMLID_17_" class="st1" d="M153.1,4c0-0.6,0.2-1.3,0.5-1.6c0.3-0.3,0.9-0.6,1.5-0.6c0.6,0,1.3,0.3,1.6,0.6
	c0.5,0.3,0.8,1,0.8,1.6c0,0.6-0.3,1.3-0.6,1.6c-0.5,0.3-1.1,0.6-1.7,0.6c-0.6,0-1.1-0.3-1.4-0.6C153.4,5.3,153.1,4.6,153.1,4
	L153.1,4z"/>
<path id="XMLID_87_" class="st1" d="M129,25.6l0.8,1.1c-0.9,1.4-2.4,2.6-3.6,3.2c-1.3,0.6-2.8,1.1-4.4,1.1c-2.5,0-4.9-1-6.5-2.8
	c-1.5-1.9-2.5-4.3-2.5-7.2c0-1.1,0.3-2.4,0.6-3.7c0.3-1.3,1.1-2.4,1.7-3.4c0.9-1.1,1.9-2.1,2.8-2.6c0.9-0.6,2.2-0.9,3.5-0.9
	c2.2,0,4.3,0.8,5.7,2.4c1.4,1.6,2.4,4,2.4,6.6l-13,0.2V20c0,0.2,0,0.5,0,0.8c0,2.6,0.6,4.7,1.6,6.1c1.1,1.4,2.8,2.3,4.7,2.3
	c0.9,0,1.9-0.3,2.8-0.8C126.6,27.7,127.9,26.8,129,25.6L129,25.6z M126,18.2c0-1.9-0.6-3.7-1.3-4.7c-0.8-1.1-2-1.7-3.3-1.7
	c-1.2,0-2.3,0.6-3.1,1.6c-0.8,1.1-1.4,2.9-1.7,5L126,18.2L126,18.2z"/>
<g id="XMLID_62_">
	<path id="XMLID_85_" class="st2" d="M82.5,37.4h0.5c0.8,0,1.2-0.3,1.4-1.1h0.4V39h-0.4c-0.1-0.9-0.6-1.2-1.3-1.2h-0.5V40
		c0,0.7,0.2,0.9,0.9,0.9v0.3H80v-0.3c0.7,0,0.9-0.2,0.9-0.9v-4.6c0-0.7-0.2-0.9-0.9-0.9v-0.3h5.7l0.5,1.9l-0.3,0.1
		c-0.6-0.9-1.6-1.6-2.7-1.6c-0.7,0-0.8,0.2-0.8,0.8V37.4z"/>
	<path id="XMLID_82_" class="st2" d="M97.8,37.8c0-2,1.3-3.8,3.4-3.8c2.2,0,3.5,1.5,3.5,3.6c0,1.9-1.3,3.8-3.5,3.8
		C99.1,41.4,97.8,39.9,97.8,37.8z M99.4,37.7c0,2.4,0.7,3.3,1.7,3.3c1.7,0,1.9-2,1.9-3.3c0-2.5-0.7-3.3-1.8-3.3
		C100.2,34.4,99.4,35.3,99.4,37.7z"/>
	<path id="XMLID_80_" class="st2" d="M119.3,38.7c0,1.7,0.5,2.2,1.6,2.2c1.4,0,1.8-0.9,1.8-2.3v-3.4c0-0.7-0.2-0.9-0.9-0.9v-0.3h2.4
		v0.3c-0.7,0-0.9,0.2-0.9,0.9v3.4c0,1.7-0.7,2.6-2.6,2.6c-1.9,0-2.9-0.9-2.9-2.4v-3.6c0-0.7-0.2-0.9-0.9-0.9v-0.3h3.4v0.3
		c-0.7,0-0.9,0.2-0.9,0.9V38.7z"/>
	<path id="XMLID_78_" class="st2" d="M141.6,39v-3.2c0-0.8-0.1-1.3-1-1.4v-0.3h2.5v0.3c-0.9,0.2-1,0.5-1,1.4v5.4h-0.9l-3.9-5.5v3.7
		c0,1,0.1,1.2,1.1,1.5v0.3h-2.7v-0.3c0.9-0.1,1.1-0.4,1.1-1.3v-4.4c-0.3-0.3-0.7-0.6-1.1-0.7v-0.3h2.4L141.6,39z"/>
	<path id="XMLID_75_" class="st2" d="M155,40.9c0.7,0,0.9-0.2,0.9-0.9v-4.6c0-0.7-0.2-0.9-0.9-0.9v-0.3h3.3c0.6,0,1.1,0.1,1.6,0.3
		c1.2,0.5,2.1,1.6,2.1,3.3c0,1.6-0.9,2.7-2.1,3.2c-0.5,0.2-1.1,0.2-1.7,0.2H155V40.9z M157.5,39.9c0,0.7,0,0.9,0.8,0.9
		c1.2,0,2.1-0.7,2.1-3.3c0-2.4-0.9-3-2.2-3c-0.7,0-0.7,0.3-0.7,0.9V39.9z"/>
	<path id="XMLID_72_" class="st2" d="M179.9,39.7c0.2,0.7,0.3,1.2,1.2,1.2v0.3h-3.4v-0.3c0.6,0,0.8-0.1,0.8-0.4
		c0-0.2-0.1-0.4-0.1-0.6l-0.3-1.1h-2.4l-0.2,0.6c-0.1,0.3-0.2,0.5-0.2,0.8c0,0.5,0.4,0.7,0.9,0.7v0.3h-2.6v-0.3
		c0.9-0.3,1.1-0.7,1.4-1.5l1.9-5l1.4-0.5L179.9,39.7z M176.9,35.2l-1.1,3.1h2.1L176.9,35.2z"/>
	<path id="XMLID_70_" class="st2" d="M197.8,34.2l0.5,1.9l-0.4,0.1c-0.5-0.7-1.3-1.6-2.2-1.6V40c0,0.7,0.2,0.9,0.9,0.9v0.3h-3.4
		v-0.3c0.7,0,0.9-0.2,0.9-0.9v-5.5c-1,0.1-1.7,0.9-2.2,1.6l-0.4-0.1l0.5-1.9H197.8z"/>
	<path id="XMLID_68_" class="st2" d="M213.6,35.4c0-0.7-0.2-0.9-0.9-0.9v-0.3h3.4v0.3c-0.7,0-0.9,0.2-0.9,0.9V40
		c0,0.7,0.2,0.9,0.9,0.9v0.3h-3.4v-0.3c0.7,0,0.9-0.2,0.9-0.9V35.4z"/>
	<path id="XMLID_65_" class="st2" d="M228.3,37.8c0-2,1.3-3.8,3.4-3.8c2.2,0,3.5,1.5,3.5,3.6c0,1.9-1.3,3.8-3.5,3.8
		C229.6,41.4,228.3,39.9,228.3,37.8z M230,37.7c0,2.4,0.7,3.3,1.7,3.3c1.7,0,1.9-2,1.9-3.3c0-2.5-0.7-3.3-1.8-3.3
		C230.7,34.4,230,35.3,230,37.7z"/>
	<path id="XMLID_63_" class="st2" d="M253.3,39v-3.2c0-0.8-0.1-1.3-1-1.4v-0.3h2.5v0.3c-0.9,0.2-1,0.5-1,1.4v5.4H253l-3.9-5.5v3.7
		c0,1,0.1,1.2,1.1,1.5v0.3h-2.7v-0.3c0.9-0.1,1.1-0.4,1.1-1.3v-4.4c-0.3-0.3-0.7-0.6-1.1-0.7v-0.3h2.4L253.3,39z"/>
</g>
</svg>
